<mxfile host="Electron" modified="2023-12-18T14:44:13.237Z" agent="Mozilla/5.0 (Windows NT 10.0; Win64; x64) AppleWebKit/537.36 (KHTML, like Gecko) draw.io/22.1.2 Chrome/114.0.5735.289 Electron/25.9.4 Safari/537.36" etag="xPPU9xX_RmJu9rHuv56v" version="22.1.2" type="device">
  <diagram name="Commands" id="cmH31d9vp3nPy-7ZmdL6">
    <mxGraphModel dx="1100" dy="990" grid="1" gridSize="10" guides="1" tooltips="1" connect="1" arrows="1" fold="1" page="1" pageScale="1" pageWidth="827" pageHeight="1169" math="0" shadow="0">
      <root>
        <mxCell id="0" />
        <mxCell id="1" parent="0" />
        <mxCell id="cW7CYv1ol9EEybIGgzO6-27" value="" style="edgeStyle=orthogonalEdgeStyle;rounded=0;orthogonalLoop=1;jettySize=auto;html=1;" edge="1" parent="1" source="cW7CYv1ol9EEybIGgzO6-1" target="cW7CYv1ol9EEybIGgzO6-5">
          <mxGeometry relative="1" as="geometry" />
        </mxCell>
        <mxCell id="cW7CYv1ol9EEybIGgzO6-1" value="/add" style="rounded=0;whiteSpace=wrap;html=1;" vertex="1" parent="1">
          <mxGeometry x="360" y="40" width="120" height="60" as="geometry" />
        </mxCell>
        <mxCell id="cW7CYv1ol9EEybIGgzO6-2" value="/about" style="rounded=0;whiteSpace=wrap;html=1;" vertex="1" parent="1">
          <mxGeometry x="360" y="140" width="120" height="60" as="geometry" />
        </mxCell>
        <mxCell id="cW7CYv1ol9EEybIGgzO6-3" value="/reload" style="rounded=0;whiteSpace=wrap;html=1;" vertex="1" parent="1">
          <mxGeometry x="360" y="240" width="120" height="60" as="geometry" />
        </mxCell>
        <mxCell id="cW7CYv1ol9EEybIGgzO6-30" value="" style="edgeStyle=orthogonalEdgeStyle;rounded=0;orthogonalLoop=1;jettySize=auto;html=1;" edge="1" parent="1" source="cW7CYv1ol9EEybIGgzO6-4" target="cW7CYv1ol9EEybIGgzO6-22">
          <mxGeometry relative="1" as="geometry" />
        </mxCell>
        <mxCell id="cW7CYv1ol9EEybIGgzO6-32" style="edgeStyle=orthogonalEdgeStyle;rounded=0;orthogonalLoop=1;jettySize=auto;html=1;exitX=1;exitY=0.5;exitDx=0;exitDy=0;entryX=0;entryY=0.5;entryDx=0;entryDy=0;" edge="1" parent="1" source="cW7CYv1ol9EEybIGgzO6-4" target="cW7CYv1ol9EEybIGgzO6-21">
          <mxGeometry relative="1" as="geometry" />
        </mxCell>
        <mxCell id="cW7CYv1ol9EEybIGgzO6-4" value="/profile" style="rounded=0;whiteSpace=wrap;html=1;" vertex="1" parent="1">
          <mxGeometry x="360" y="340" width="120" height="60" as="geometry" />
        </mxCell>
        <mxCell id="cW7CYv1ol9EEybIGgzO6-28" value="" style="edgeStyle=orthogonalEdgeStyle;rounded=0;orthogonalLoop=1;jettySize=auto;html=1;" edge="1" parent="1" source="cW7CYv1ol9EEybIGgzO6-5" target="cW7CYv1ol9EEybIGgzO6-19">
          <mxGeometry relative="1" as="geometry" />
        </mxCell>
        <mxCell id="cW7CYv1ol9EEybIGgzO6-29" style="edgeStyle=orthogonalEdgeStyle;rounded=0;orthogonalLoop=1;jettySize=auto;html=1;exitX=1;exitY=0.5;exitDx=0;exitDy=0;entryX=0;entryY=0.5;entryDx=0;entryDy=0;" edge="1" parent="1" source="cW7CYv1ol9EEybIGgzO6-5" target="cW7CYv1ol9EEybIGgzO6-20">
          <mxGeometry relative="1" as="geometry">
            <Array as="points">
              <mxPoint x="660" y="70" />
              <mxPoint x="660" y="170" />
            </Array>
          </mxGeometry>
        </mxCell>
        <mxCell id="cW7CYv1ol9EEybIGgzO6-5" value="trackCode" style="shape=process;whiteSpace=wrap;html=1;backgroundOutline=1;" vertex="1" parent="1">
          <mxGeometry x="520" y="40" width="120" height="60" as="geometry" />
        </mxCell>
        <mxCell id="cW7CYv1ol9EEybIGgzO6-7" value="CPF" style="shape=process;whiteSpace=wrap;html=1;backgroundOutline=1;" vertex="1" parent="1">
          <mxGeometry x="680" y="340" width="120" height="60" as="geometry" />
        </mxCell>
        <mxCell id="cW7CYv1ol9EEybIGgzO6-33" value="" style="edgeStyle=orthogonalEdgeStyle;rounded=0;orthogonalLoop=1;jettySize=auto;html=1;" edge="1" parent="1" source="cW7CYv1ol9EEybIGgzO6-9" target="cW7CYv1ol9EEybIGgzO6-10">
          <mxGeometry relative="1" as="geometry" />
        </mxCell>
        <mxCell id="cW7CYv1ol9EEybIGgzO6-9" value="/edit" style="rounded=0;whiteSpace=wrap;html=1;" vertex="1" parent="1">
          <mxGeometry x="360" y="540" width="120" height="60" as="geometry" />
        </mxCell>
        <mxCell id="cW7CYv1ol9EEybIGgzO6-10" value="trackCode" style="shape=process;whiteSpace=wrap;html=1;backgroundOutline=1;" vertex="1" parent="1">
          <mxGeometry x="520" y="540" width="120" height="60" as="geometry" />
        </mxCell>
        <mxCell id="cW7CYv1ol9EEybIGgzO6-34" value="" style="edgeStyle=orthogonalEdgeStyle;rounded=0;orthogonalLoop=1;jettySize=auto;html=1;" edge="1" parent="1" source="cW7CYv1ol9EEybIGgzO6-11" target="cW7CYv1ol9EEybIGgzO6-15">
          <mxGeometry relative="1" as="geometry" />
        </mxCell>
        <mxCell id="cW7CYv1ol9EEybIGgzO6-11" value="/pause" style="rounded=0;whiteSpace=wrap;html=1;" vertex="1" parent="1">
          <mxGeometry x="360" y="640" width="120" height="60" as="geometry" />
        </mxCell>
        <mxCell id="cW7CYv1ol9EEybIGgzO6-36" value="" style="edgeStyle=orthogonalEdgeStyle;rounded=0;orthogonalLoop=1;jettySize=auto;html=1;" edge="1" parent="1" source="cW7CYv1ol9EEybIGgzO6-12" target="cW7CYv1ol9EEybIGgzO6-16">
          <mxGeometry relative="1" as="geometry" />
        </mxCell>
        <mxCell id="cW7CYv1ol9EEybIGgzO6-12" value="/remove" style="rounded=0;whiteSpace=wrap;html=1;" vertex="1" parent="1">
          <mxGeometry x="360" y="840" width="120" height="60" as="geometry" />
        </mxCell>
        <mxCell id="cW7CYv1ol9EEybIGgzO6-15" value="trackCode" style="shape=process;whiteSpace=wrap;html=1;backgroundOutline=1;" vertex="1" parent="1">
          <mxGeometry x="520" y="640" width="120" height="60" as="geometry" />
        </mxCell>
        <mxCell id="cW7CYv1ol9EEybIGgzO6-16" value="trackCode" style="shape=process;whiteSpace=wrap;html=1;backgroundOutline=1;" vertex="1" parent="1">
          <mxGeometry x="520" y="840" width="120" height="60" as="geometry" />
        </mxCell>
        <mxCell id="cW7CYv1ol9EEybIGgzO6-35" value="" style="edgeStyle=orthogonalEdgeStyle;rounded=0;orthogonalLoop=1;jettySize=auto;html=1;" edge="1" parent="1" source="cW7CYv1ol9EEybIGgzO6-17" target="cW7CYv1ol9EEybIGgzO6-18">
          <mxGeometry relative="1" as="geometry" />
        </mxCell>
        <mxCell id="cW7CYv1ol9EEybIGgzO6-17" value="/resume" style="rounded=0;whiteSpace=wrap;html=1;" vertex="1" parent="1">
          <mxGeometry x="360" y="740" width="120" height="60" as="geometry" />
        </mxCell>
        <mxCell id="cW7CYv1ol9EEybIGgzO6-18" value="trackCode" style="shape=process;whiteSpace=wrap;html=1;backgroundOutline=1;" vertex="1" parent="1">
          <mxGeometry x="520" y="740" width="120" height="60" as="geometry" />
        </mxCell>
        <mxCell id="cW7CYv1ol9EEybIGgzO6-19" value="name" style="shape=parallelogram;perimeter=parallelogramPerimeter;whiteSpace=wrap;html=1;fixedSize=1;" vertex="1" parent="1">
          <mxGeometry x="680" y="40" width="120" height="60" as="geometry" />
        </mxCell>
        <mxCell id="cW7CYv1ol9EEybIGgzO6-20" value="description" style="shape=parallelogram;perimeter=parallelogramPerimeter;whiteSpace=wrap;html=1;fixedSize=1;" vertex="1" parent="1">
          <mxGeometry x="670" y="140" width="120" height="60" as="geometry" />
        </mxCell>
        <mxCell id="cW7CYv1ol9EEybIGgzO6-21" value="show" style="rounded=0;whiteSpace=wrap;html=1;" vertex="1" parent="1">
          <mxGeometry x="520" y="440" width="120" height="60" as="geometry" />
        </mxCell>
        <mxCell id="cW7CYv1ol9EEybIGgzO6-31" value="" style="edgeStyle=orthogonalEdgeStyle;rounded=0;orthogonalLoop=1;jettySize=auto;html=1;" edge="1" parent="1" source="cW7CYv1ol9EEybIGgzO6-22" target="cW7CYv1ol9EEybIGgzO6-7">
          <mxGeometry relative="1" as="geometry" />
        </mxCell>
        <mxCell id="cW7CYv1ol9EEybIGgzO6-22" value="edit" style="rounded=0;whiteSpace=wrap;html=1;" vertex="1" parent="1">
          <mxGeometry x="520" y="340" width="120" height="60" as="geometry" />
        </mxCell>
        <mxCell id="cW7CYv1ol9EEybIGgzO6-23" value="Legenda" style="swimlane;whiteSpace=wrap;html=1;" vertex="1" parent="1">
          <mxGeometry x="650" y="500" width="150" height="320" as="geometry" />
        </mxCell>
        <mxCell id="cW7CYv1ol9EEybIGgzO6-24" value="Comando&lt;br&gt;/&lt;br&gt;Sub-Comando" style="rounded=0;whiteSpace=wrap;html=1;" vertex="1" parent="cW7CYv1ol9EEybIGgzO6-23">
          <mxGeometry x="15" y="40" width="120" height="60" as="geometry" />
        </mxCell>
        <mxCell id="cW7CYv1ol9EEybIGgzO6-25" value="Parametro&lt;br&gt;Obrigatorio" style="shape=process;whiteSpace=wrap;html=1;backgroundOutline=1;" vertex="1" parent="cW7CYv1ol9EEybIGgzO6-23">
          <mxGeometry x="15" y="140" width="120" height="60" as="geometry" />
        </mxCell>
        <mxCell id="cW7CYv1ol9EEybIGgzO6-26" value="Parametro&lt;br&gt;Opcional" style="shape=parallelogram;perimeter=parallelogramPerimeter;whiteSpace=wrap;html=1;fixedSize=1;" vertex="1" parent="cW7CYv1ol9EEybIGgzO6-23">
          <mxGeometry x="15" y="240" width="120" height="60" as="geometry" />
        </mxCell>
        <mxCell id="cW7CYv1ol9EEybIGgzO6-37" value="/package" style="rounded=0;whiteSpace=wrap;html=1;" vertex="1" parent="1">
          <mxGeometry x="210" y="440" width="120" height="60" as="geometry" />
        </mxCell>
        <mxCell id="cW7CYv1ol9EEybIGgzO6-38" value="/bot" style="rounded=0;whiteSpace=wrap;html=1;" vertex="1" parent="1">
          <mxGeometry x="200" y="240" width="120" height="60" as="geometry" />
        </mxCell>
        <mxCell id="cW7CYv1ol9EEybIGgzO6-39" value="/verify" style="rounded=0;whiteSpace=wrap;html=1;" vertex="1" parent="1">
          <mxGeometry x="360" y="940" width="120" height="60" as="geometry" />
        </mxCell>
      </root>
    </mxGraphModel>
  </diagram>
</mxfile>
